<svg width="27" height="28" viewBox="0 0 27 28" fill="none" xmlns="http://www.w3.org/2000/svg">
<path d="M24.908 10.4423C24.8959 9.904 24.6209 9.40575 24.172 9.10844L14.466 2.30122C13.8762 1.89959 13.1008 1.89959 12.511 2.30122L2.851 9.06244C2.38969 9.36189 2.10573 9.86953 2.092 10.4193C2.03205 10.6248 2.00108 10.8377 2 11.0517V23.7003C2 24.9704 3.02974 26 4.3 26H10.05C10.6851 26 11.2 25.4852 11.2 24.8501V20.2507C11.2 18.9806 12.2297 17.9509 13.5 17.9509C14.7703 17.9509 15.8 18.9806 15.8 20.2507V24.8501C15.8 25.4852 16.3149 26 16.95 26H22.7C23.9703 26 25 24.9704 25 23.7003V11.0517C24.9968 10.8454 24.9659 10.6404 24.908 10.4423Z" stroke="black" stroke-width="2.5"/>
</svg>
