<svg width="262" height="262" viewBox="0 0 262 262" fill="none" xmlns="http://www.w3.org/2000/svg">
<path d="M127.198 10.32C173.705 4.56481 219.506 23.7929 227.938 78.0284C235.081 123.971 199.546 161.415 174.067 186.64C155.332 205.188 138.515 220.461 127.198 248.506C124.118 256.139 118.573 251.13 111.119 240.753C103.463 230.096 93.7943 213.778 82.713 199.673C56.788 166.674 32.7171 142.429 32.7171 106.651C32.7171 52.2287 80.6914 16.0753 127.198 10.32Z" fill="white"/>
<path fill-rule="evenodd" clip-rule="evenodd" d="M109.377 253.637C107.446 251.476 105.484 248.918 103.533 246.202C100.549 242.048 97.2508 237.038 93.8253 231.833C92.7007 230.125 91.5623 228.395 90.4169 226.669C85.6867 219.538 80.6678 212.189 75.3682 205.443C72.0685 201.243 68.7259 197.101 65.4165 193C56.162 181.532 47.1668 170.386 40.096 159.191C30.2418 143.589 23.3766 126.858 23.3766 106.65C23.3767 45.9795 76.5651 7.1733 126.051 1.04937C150.807 -2.01423 176.09 1.46887 196.612 13.6436C217.425 25.9911 232.541 46.833 237.168 76.5927C241.191 102.468 233.088 125.563 221.202 144.979C209.378 164.295 193.388 180.654 180.639 193.277C179.359 194.543 178.097 195.788 176.851 197.016C159.603 214.018 145.629 227.793 135.86 252.001C134.741 254.774 132.526 258.738 128 260.607C123.088 262.635 118.642 260.955 116.052 259.426C113.466 257.901 111.22 255.701 109.377 253.637ZM118.386 245.334C118.385 245.331 118.402 245.294 118.441 245.231C118.406 245.305 118.387 245.336 118.386 245.334ZM121.253 238.715C132.374 214.563 147.681 199.504 163.42 184.019C164.776 182.685 166.135 181.348 167.496 180.001C180.225 167.399 194.741 152.424 205.269 135.226C215.735 118.129 221.828 99.5299 218.709 79.4624C214.903 54.9866 202.903 39.0967 187.08 29.7101C170.967 20.1507 150.096 16.8974 128.345 19.589C84.8178 24.9756 42.0577 58.4762 42.0577 106.65C42.0577 122.22 47.228 135.5 55.8905 149.215C62.3391 159.425 70.3223 169.319 79.3151 180.464C82.7579 184.731 86.3487 189.181 90.058 193.902C95.8396 201.261 101.196 209.123 105.984 216.342C107.243 218.239 108.452 220.076 109.617 221.845C112.974 226.945 115.964 231.487 118.705 235.303C119.619 236.575 120.467 237.712 121.253 238.715Z" fill="black"/>
</svg>
