<svg width="30" height="30" viewBox="0 0 30 30" fill="none" xmlns="http://www.w3.org/2000/svg">
<g clip-path="url(#clip0_3686_2499)">
<path d="M22.794 7.5H20.294C20.294 4.7375 18.0565 2.5 15.294 2.5C12.5315 2.5 10.294 4.7375 10.294 7.5H7.794C6.419 7.5 5.294 8.625 5.294 10L3.5293 25C3.5293 26.375 4.6543 27.5 6.0293 27.5H24.5587C25.9337 27.5 27.0587 26.375 27.0587 25L25.294 10C25.294 8.625 24.169 7.5 22.794 7.5ZM15.294 5C16.669 5 17.794 6.125 17.794 7.5H12.794C12.794 6.125 13.919 5 15.294 5ZM24.5587 25H6.0293L7.794 10H10.294V12.5C10.294 13.1875 10.8565 13.75 11.544 13.75C12.2315 13.75 12.794 13.1875 12.794 12.5V10H17.794V12.5C17.794 13.1875 18.3565 13.75 19.044 13.75C19.7315 13.75 20.294 13.1875 20.294 12.5V10H22.794L24.5587 25Z" fill="black"/>
</g>
<defs>
<clipPath id="clip0_3686_2499">
<rect width="30" height="30" fill="white"/>
</clipPath>
</defs>
</svg>
