<svg width="606" height="209" viewBox="0 0 606 209" fill="none" xmlns="http://www.w3.org/2000/svg">
<path d="M48.4 141.807C33.7533 141.807 22.025 139.049 13.215 133.534C4.40501 127.908 0 119.359 0 107.886C0 101.819 1.04619 97.1857 3.13857 93.9866C5.23094 90.7875 8.31445 89.188 12.3891 89.188C15.3625 89.188 17.7852 89.9602 19.6573 91.5046C21.5295 93.0489 22.4655 95.0346 22.4655 97.4615C22.4655 99.6677 22.3003 101.598 21.97 103.253C21.97 103.694 21.8598 104.466 21.6396 105.569C21.5295 106.673 21.4744 107.831 21.4744 109.044C21.4744 114.008 23.9522 117.704 28.9078 120.131C33.9736 122.558 41.0216 123.771 50.0519 123.771C59.4125 123.771 66.7358 122.116 72.0218 118.807C77.3078 115.387 79.9508 110.644 79.9508 104.577C79.9508 100.826 78.7395 97.6269 76.3167 94.9794C73.894 92.2216 70.8655 89.9602 67.2314 88.1952C63.5973 86.3199 58.4764 84.0584 51.8689 81.4109C43.3893 78.1015 36.4514 74.9576 31.0553 71.9792C25.7693 69.0007 21.1991 64.9743 17.3447 59.8999C13.6005 54.7152 11.7283 48.3171 11.7283 40.7055C11.7283 32.7629 13.8207 25.7029 18.0055 19.5254C22.3003 13.3479 28.4123 8.54925 36.3413 5.12955C44.3804 1.70985 53.7961 0 64.5884 0C72.6275 0 80.0059 1.21344 86.7235 3.64033C93.4412 5.9569 98.7822 9.54206 102.747 14.3958C106.821 19.2496 108.859 25.2065 108.859 32.2665C108.859 39.2162 107.812 44.4561 105.72 47.9861C103.628 51.5161 100.544 53.2811 96.4696 53.2811C93.6064 53.2811 91.1836 52.3986 89.2014 50.6336C87.3292 48.8686 86.3932 46.7727 86.3932 44.3458C86.3932 42.2498 86.5583 40.3194 86.8887 38.5544C87.2191 35.245 87.3843 33.149 87.3843 32.2665C87.3843 27.6334 85.1267 24.1034 80.6116 21.6765C76.0965 19.2496 70.4801 18.0362 63.7624 18.0362C54.2917 18.0362 47.0234 19.8012 41.9577 23.3312C37.002 26.7509 34.5242 31.6046 34.5242 37.8925C34.5242 42.0844 35.7907 45.6695 38.3235 48.648C40.9665 51.6264 44.2152 54.1085 48.0696 56.0941C51.924 58.0797 57.3201 60.4515 64.258 63.2093C72.6275 66.629 79.3452 69.7178 84.4109 72.4756C89.4767 75.2334 93.7715 78.984 97.2955 83.7275C100.93 88.4709 102.747 94.3175 102.747 101.267C102.747 114.284 97.7911 124.323 87.8799 131.383C78.0787 138.332 64.9188 141.807 48.4 141.807Z" fill="black"/>
<path d="M209.517 108.713C212.05 108.713 213.317 110.423 213.317 113.843C213.317 118.145 212.326 121.51 210.343 123.937C208.471 126.363 205.883 127.577 202.579 127.577L196.468 127.411C195.366 127.301 193.769 127.246 191.677 127.246C192.118 133.534 192.338 139.822 192.338 146.109C192.338 162.767 190.135 177.273 185.73 189.628C181.435 201.983 174.663 208.16 165.412 208.16C159.135 208.16 154.345 204.52 151.041 197.239C147.847 190.069 146.25 181.299 146.25 170.93C146.25 158.023 147.682 145.282 150.545 132.706C146.801 138.443 141.901 141.311 135.844 141.311C129.787 141.311 124.721 138.774 120.646 133.699C116.682 128.625 114.7 122.061 114.7 114.008C114.7 105.294 116.737 97.0202 120.812 89.188C124.996 81.3558 130.503 75.0679 137.33 70.3245C144.268 65.4707 151.647 63.0438 159.465 63.0438C162.108 63.0438 164.146 63.9263 165.577 65.6913C166.569 62.1613 168.055 59.7896 170.037 58.5762C172.02 57.3627 174.773 56.756 178.297 56.756C182.041 56.756 184.519 57.3076 185.73 58.4107C187.052 59.5138 187.658 61.1134 187.547 63.2093C187.547 64.5331 186.832 67.6218 185.4 72.4756C184.078 77.219 183.197 80.363 182.757 81.9073C180.995 88.0849 179.068 94.9243 176.975 102.426C174.993 109.927 173.396 116.766 172.185 122.944C168.661 140.594 166.899 156.203 166.899 169.772C166.899 174.846 167.284 179.148 168.055 182.678C168.936 186.318 170.037 188.139 171.359 188.139C172.46 188.139 173.617 186.263 174.828 182.513C176.149 178.762 177.251 173.743 178.132 167.455C179.013 161.167 179.453 154.493 179.453 147.433C179.453 139.049 179.068 131.603 178.297 125.095C178.187 124.543 178.132 123.661 178.132 122.447C178.132 118.807 179.013 115.773 180.775 113.347C182.647 110.92 185.235 109.706 188.539 109.706C188.979 109.706 193.164 109.541 201.093 109.21C204.397 108.879 207.205 108.713 209.517 108.713ZM142.451 124.598C144.984 124.598 147.407 123.054 149.719 119.965C152.032 116.766 153.684 112.96 154.675 108.548L161.778 78.4325C156.933 78.5428 152.473 80.2526 148.398 83.562C144.433 86.8714 141.24 91.2839 138.817 96.7996C136.504 102.205 135.348 107.941 135.348 114.008C135.348 117.428 135.954 120.076 137.165 121.951C138.487 123.716 140.249 124.598 142.451 124.598Z" fill="black"/>
<path d="M216.29 141.311C211.334 141.311 207.26 139.049 204.066 134.527C200.983 129.893 199.441 124.157 199.441 117.318C199.441 109.044 199.992 101.488 201.093 94.6485C202.194 87.6988 204.011 80.363 206.544 72.6411C207.645 69.3317 209.187 66.9599 211.169 65.5259C213.151 64.0918 216.29 63.3748 220.585 63.3748C223.008 63.3748 224.66 63.7609 225.541 64.5331C226.532 65.3052 227.027 66.4635 227.027 68.0079C227.027 68.8904 226.422 71.8689 225.21 76.9433C224.109 81.0248 223.228 84.7203 222.567 88.0297C220.365 99.6126 219.263 107.334 219.263 111.195C219.263 113.512 219.539 115.167 220.089 116.16C220.64 117.042 221.521 117.483 222.732 117.483C224.384 117.483 226.422 115.829 228.844 112.519C231.377 109.21 234.02 104.191 236.773 97.4615C239.637 90.7324 242.39 82.4589 245.033 72.6411C245.914 69.3317 247.235 66.9599 248.997 65.5259C250.869 64.0918 253.622 63.3748 257.257 63.3748C259.789 63.3748 261.551 63.7057 262.543 64.3676C263.534 64.9192 264.029 66.0223 264.029 67.677C264.029 70.4348 262.653 77.9912 259.9 90.3463C256.816 104.466 255.274 113.181 255.274 116.49C255.274 118.586 255.715 120.241 256.596 121.455C257.477 122.558 258.633 123.109 260.065 123.109C262.267 123.109 264.855 121.785 267.829 119.138C270.912 116.38 274.987 111.968 280.052 105.9C281.374 104.356 282.861 103.584 284.513 103.584C285.944 103.584 287.045 104.246 287.816 105.569C288.697 106.893 289.138 108.713 289.138 111.03C289.138 115.442 288.092 118.862 285.999 121.289C281.264 127.136 276.143 131.934 270.637 135.685C265.241 139.436 259.074 141.311 252.136 141.311C246.85 141.311 242.94 139.27 240.407 135.188C237.985 131.107 236.773 125.371 236.773 117.98C234.901 125.481 232.093 131.272 228.349 135.354C224.604 139.325 220.585 141.311 216.29 141.311Z" fill="black"/>
<path d="M349.417 103.584C350.849 103.584 351.95 104.246 352.721 105.569C353.602 106.893 354.042 108.713 354.042 111.03C354.042 115.442 352.996 118.862 350.904 121.289C346.829 126.253 341.048 130.831 333.559 135.023C326.181 139.215 318.252 141.311 309.772 141.311C298.209 141.311 289.234 138.167 282.846 131.879C276.459 125.591 273.266 116.987 273.266 106.066C273.266 98.4543 274.862 91.3942 278.056 84.8858C281.25 78.267 285.655 73.0271 291.271 69.1662C296.998 65.3052 303.44 63.3748 310.598 63.3748C316.985 63.3748 322.106 65.3052 325.96 69.1662C329.815 72.9168 331.742 78.0464 331.742 84.5548C331.742 92.1664 328.989 98.7301 323.483 104.246C318.087 109.651 308.891 113.953 295.896 117.152C298.649 122.227 303.88 124.764 311.589 124.764C316.545 124.764 322.161 123.054 328.438 119.634C334.826 116.104 340.332 111.526 344.957 105.9C346.279 104.356 347.765 103.584 349.417 103.584ZM307.79 79.5908C303.715 79.5908 300.246 81.9625 297.383 86.7059C294.63 91.4494 293.253 97.1857 293.253 103.915V104.246C299.751 102.701 304.871 100.385 308.616 97.296C312.36 94.2072 314.232 90.6221 314.232 86.5405C314.232 84.4445 313.626 82.7898 312.415 81.5764C311.314 80.2526 309.772 79.5908 307.79 79.5908Z" fill="black"/>
<path d="M414.266 103.584C415.698 103.584 416.799 104.246 417.57 105.569C418.451 106.893 418.891 108.713 418.891 111.03C418.891 115.442 417.845 118.862 415.753 121.289C411.678 126.253 405.897 130.831 398.408 135.023C391.03 139.215 383.101 141.311 374.621 141.311C363.058 141.311 354.083 138.167 347.696 131.879C341.308 125.591 338.115 116.987 338.115 106.066C338.115 98.4543 339.711 91.3942 342.905 84.8858C346.099 78.267 350.504 73.0271 356.12 69.1662C361.847 65.3052 368.289 63.3748 375.447 63.3748C381.834 63.3748 386.955 65.3052 390.81 69.1662C394.664 72.9168 396.591 78.0464 396.591 84.5548C396.591 92.1664 393.838 98.7301 388.332 104.246C382.936 109.651 373.74 113.953 360.745 117.152C363.499 122.227 368.729 124.764 376.438 124.764C381.394 124.764 387.01 123.054 393.287 119.634C399.675 116.104 405.181 111.526 409.806 105.9C411.128 104.356 412.614 103.584 414.266 103.584ZM372.639 79.5908C368.564 79.5908 365.095 81.9625 362.232 86.7059C359.479 91.4494 358.102 97.1857 358.102 103.915V104.246C364.6 102.701 369.721 100.385 373.465 97.296C377.209 94.2072 379.081 90.6221 379.081 86.5405C379.081 84.4445 378.475 82.7898 377.264 81.5764C376.163 80.2526 374.621 79.5908 372.639 79.5908Z" fill="black"/>
<path d="M486.257 103.584C487.689 103.584 488.79 104.246 489.561 105.569C490.442 106.893 490.882 108.713 490.882 111.03C490.882 115.112 489.836 118.531 487.744 121.289C482.568 128.018 476.125 133.313 468.417 137.174C460.818 141.035 452.228 142.966 442.647 142.966C435.159 142.966 428.662 141.862 423.155 139.656C417.649 137.34 413.409 134.251 410.436 130.39C407.573 126.419 406.141 122.006 406.141 117.152C406.141 109.872 409.059 103.418 414.896 97.7924C420.733 92.1664 429.102 86.7611 440.004 81.5764L412.914 82.2383C410.491 82.3486 408.619 81.5212 407.297 79.7562C406.086 77.8809 405.48 75.6747 405.48 73.1375C405.48 70.49 406.086 68.1734 407.297 66.1877C408.619 64.0918 410.381 63.0438 412.583 63.0438C417.649 63.0438 424.422 63.4299 432.901 64.2021C434.663 64.3124 437.857 64.5331 442.482 64.864C447.218 65.1949 451.182 65.3604 454.376 65.3604C455.477 65.3604 457.569 64.9191 460.653 64.0366C461.204 63.9263 462.25 63.6505 463.792 63.2093C465.443 62.768 466.82 62.5474 467.921 62.5474C469.683 62.5474 471.115 63.3196 472.216 64.864C473.427 66.4084 474.033 68.7801 474.033 71.9792C474.033 75.5092 473.207 78.267 471.555 80.2526C469.903 82.2383 467.316 84.0033 463.792 85.5477C453.77 89.8499 445.456 94.483 438.848 99.4471C432.241 104.301 428.937 109.155 428.937 114.008C428.937 117.097 430.369 119.634 433.232 121.62C436.095 123.606 440.335 124.598 445.951 124.598C452.118 124.598 458.34 123.054 464.617 119.965C471.005 116.877 476.731 112.188 481.797 105.9C483.118 104.356 484.605 103.584 486.257 103.584Z" fill="black"/>
<path d="M551.062 103.584C552.494 103.584 553.595 104.246 554.366 105.569C555.247 106.893 555.687 108.713 555.687 111.03C555.687 115.442 554.641 118.862 552.549 121.289C548.474 126.253 542.693 130.831 535.204 135.023C527.826 139.215 519.897 141.311 511.417 141.311C499.854 141.311 490.879 138.167 484.492 131.879C478.104 125.591 474.911 116.987 474.911 106.066C474.911 98.4543 476.508 91.3942 479.701 84.8858C482.895 78.267 487.3 73.0271 492.916 69.1662C498.643 65.3052 505.085 63.3748 512.243 63.3748C518.63 63.3748 523.751 65.3052 527.606 69.1662C531.46 72.9168 533.387 78.0464 533.387 84.5548C533.387 92.1664 530.634 98.7301 525.128 104.246C519.732 109.651 510.536 113.953 497.541 117.152C500.295 122.227 505.525 124.764 513.234 124.764C518.19 124.764 523.806 123.054 530.083 119.634C536.471 116.104 541.977 111.526 546.602 105.9C547.924 104.356 549.41 103.584 551.062 103.584ZM509.435 79.5908C505.36 79.5908 501.891 81.9625 499.028 86.7059C496.275 91.4494 494.898 97.1857 494.898 103.915V104.246C501.396 102.701 506.517 100.385 510.261 97.296C514.005 94.2072 515.877 90.6221 515.877 86.5405C515.877 84.4445 515.272 82.7898 514.06 81.5764C512.959 80.2526 511.417 79.5908 509.435 79.5908Z" fill="black"/>
<path d="M601.375 108.548C602.806 108.548 603.908 109.21 604.679 110.534C605.56 111.857 606 113.677 606 115.994C606 119.965 605.064 123.385 603.192 126.253C600.108 130.997 596.034 134.692 590.968 137.34C586.012 139.987 580.066 141.311 573.128 141.311C562.556 141.311 554.351 138.167 548.515 131.879C542.678 125.481 539.76 116.877 539.76 106.066C539.76 98.4543 541.357 91.3942 544.55 84.8858C547.744 78.267 552.149 73.0271 557.765 69.1662C563.492 65.3052 569.934 63.3748 577.092 63.3748C583.479 63.3748 588.6 65.3052 592.455 69.1662C596.309 72.9168 598.236 78.0464 598.236 84.5548C598.236 92.1664 595.483 98.7301 589.977 104.246C584.581 109.651 575.33 113.953 562.225 117.152C564.868 122.227 569.328 124.764 575.605 124.764C580.121 124.764 583.81 123.716 586.673 121.62C589.646 119.524 593.06 115.994 596.915 111.03C598.236 109.375 599.723 108.548 601.375 108.548ZM574.284 79.5908C570.209 79.5908 566.74 81.9625 563.877 86.7059C561.124 91.4494 559.747 97.1857 559.747 103.915V104.246C566.245 102.701 571.366 100.385 575.11 97.296C578.854 94.2072 580.726 90.6221 580.726 86.5405C580.726 84.4445 580.121 82.7898 578.909 81.5764C577.808 80.2526 576.266 79.5908 574.284 79.5908Z" fill="black"/>
</svg>
